<svg width="29" height="29" viewBox="0 0 29 29" fill="none" xmlns="http://www.w3.org/2000/svg">
<path d="M11.6 2.9C8.39675 2.9 5.8 5.49675 5.8 8.7C5.8 11.9033 8.39675 14.5 11.6 14.5C14.8033 14.5 17.4 11.9033 17.4 8.7C17.4 5.49675 14.8033 2.9 11.6 2.9ZM2.9 8.7C2.9 3.89512 6.79512 0 11.6 0C16.4049 0 20.3 3.89512 20.3 8.7C20.3 13.5049 16.4049 17.4 11.6 17.4C6.79512 17.4 2.9 13.5049 2.9 8.7ZM24.65 13.05C25.4508 13.05 26.1 13.6992 26.1 14.5V15.95H27.55C28.3508 15.95 29 16.5992 29 17.4C29 18.2008 28.3508 18.85 27.55 18.85H26.1V20.3C26.1 21.1008 25.4508 21.75 24.65 21.75C23.8492 21.75 23.2 21.1008 23.2 20.3V18.85H21.75C20.9492 18.85 20.3 18.2008 20.3 17.4C20.3 16.5992 20.9492 15.95 21.75 15.95H23.2V14.5C23.2 13.6992 23.8492 13.05 24.65 13.05ZM6.525 23.2C4.69878 23.2 2.9 24.9596 2.9 27.55C2.9 28.3508 2.25081 29 1.45 29C0.649187 29 0 28.3508 0 27.55C0 23.7339 2.74553 20.3 6.525 20.3H16.675C20.4545 20.3 23.2 23.7339 23.2 27.55C23.2 28.3508 22.5508 29 21.75 29C20.9492 29 20.3 28.3508 20.3 27.55C20.3 24.9596 18.5012 23.2 16.675 23.2H6.525Z" fill="white"/>
</svg>
