<svg width="338" height="271" viewBox="0 0 338 271" fill="none" xmlns="http://www.w3.org/2000/svg">
<path d="M3.53743 266.128C13.4674 266.458 23.4374 266.418 33.3774 266.428C43.3174 266.438 53.0774 266.348 62.9274 266.228L79.7974 266.028C80.1674 266.028 80.1874 265.358 79.7974 265.348C59.9874 265.118 40.1874 264.858 20.3774 265.018C14.7474 265.018 9.12743 265.018 3.50743 265.248C3.00743 265.268 3.03743 266.118 3.53743 266.128Z" fill="#39393B"/>
<path d="M30.8174 163.828C30.8174 163.828 18.9674 153.168 22.4474 149.828C25.9274 146.488 31.1474 157.658 31.1474 157.658C31.1474 157.658 27.0174 143.738 32.8874 142.108C38.7574 140.478 36.0374 157.878 36.0374 157.878C36.0374 157.878 37.5674 148.958 43.3274 150.158C49.0874 151.358 35.9274 165.158 35.9274 165.158L30.8174 163.828Z" fill="#EE5155"/>
<path d="M52.1875 185.548C52.1875 185.548 60.0575 174.548 73.0675 177.108C86.0775 179.668 81.7875 203.848 53.6175 205.428C38.7475 203.848 52.1875 185.548 52.1875 185.548Z" fill="#4DB971"/>
<path d="M55.1575 207.038C54.3775 216.188 53.1575 223.678 53.1575 223.678H16.4175C16.4175 223.678 15.7675 219.348 15.0375 213.268C13.9175 203.998 12.6375 190.668 13.2175 182.508C14.2175 169.018 25.4675 160.398 34.9175 159.978C47.5775 159.428 51.9175 168.328 54.8075 182.098C56.2075 188.718 55.8775 198.608 55.1575 207.038Z" fill="#4DB971"/>
<path d="M55.1575 207.038C54.3775 216.188 53.1575 223.678 53.1575 223.678H16.4175C16.4175 223.678 15.7675 219.348 15.0375 213.268C23.6875 213.908 43.2475 214.378 55.1575 207.038Z" fill="#39393B"/>
<path d="M55.5875 189.288C55.4575 186.968 55.1575 184.708 54.8275 182.428C54.8275 182.396 54.8148 182.365 54.7923 182.343C54.7698 182.32 54.7393 182.308 54.7075 182.308C54.6756 182.308 54.6451 182.32 54.6226 182.343C54.6001 182.365 54.5875 182.396 54.5875 182.428C54.5875 186.878 54.5875 191.348 54.5875 195.808C54.5875 197.988 54.4875 200.178 54.3675 202.358C54.3075 203.451 54.2375 204.541 54.1575 205.628C54.0675 206.798 53.8775 207.988 53.8975 209.168C53.8975 209.728 54.7875 209.938 54.8975 209.338C55.2676 207.13 55.4682 204.896 55.4975 202.658C55.6175 200.428 55.6975 198.188 55.7275 195.958C55.7575 193.728 55.6875 191.508 55.5875 189.288Z" fill="#39393B"/>
<path d="M26.8975 177.298C26.6588 176.823 26.3882 176.366 26.0875 175.928C25.7975 175.448 25.5075 174.978 25.2275 174.498L24.3575 173.018C24.0775 172.538 23.6775 172.148 23.4375 171.648C23.6875 172.168 23.7575 172.738 23.9975 173.268C24.2375 173.798 24.4775 174.268 24.7475 174.778C25.0175 175.288 25.2575 175.708 25.5275 176.158C25.7894 176.651 26.101 177.117 26.4575 177.548C26.6275 177.768 27.0375 177.608 26.8975 177.298Z" fill="#39393B"/>
<path d="M22.8575 185.838C22.3702 184.917 21.7941 184.046 21.1375 183.238C20.4875 182.388 19.7275 181.598 19.1375 180.698C19.6975 181.558 20.1375 182.528 20.5875 183.438C21.0713 184.402 21.6545 185.314 22.3275 186.158C22.5175 186.468 23.0275 186.188 22.8575 185.838Z" fill="#39393B"/>
<path d="M35.7875 174.368C35.7875 174.118 35.7374 173.868 35.7074 173.618C35.7074 173.128 35.6174 172.618 35.5474 172.168C35.3974 171.098 35.1675 170.028 35.1075 168.958H35.0474C35.1074 169.958 34.9975 171.018 34.9675 172.048C34.9675 172.558 34.9675 173.048 34.9675 173.578V174.348C34.9657 174.606 35.0203 174.862 35.1275 175.098C35.2275 175.328 35.6274 175.358 35.7074 175.098C35.7886 174.864 35.816 174.614 35.7875 174.368Z" fill="#39393B"/>
<path d="M45.4275 173.808C44.9475 174.758 44.4275 175.698 43.9675 176.648C43.448 177.592 43.0194 178.583 42.6875 179.608C42.5775 180.008 43.1475 180.388 43.3775 179.968C43.8704 178.992 44.2656 177.971 44.5575 176.918C44.8975 175.918 45.1975 174.918 45.5575 173.918C45.5275 173.798 45.4575 173.768 45.4275 173.808Z" fill="#39393B"/>
<path d="M35.7774 184.188H35.6874C35.5074 185.268 35.3374 186.348 35.1274 187.418C35.0274 187.968 34.9174 188.508 34.8174 189.058C34.6685 189.591 34.5978 190.144 34.6074 190.698C34.6574 191.188 35.3874 191.158 35.5274 190.698C35.6442 190.17 35.6813 189.627 35.6374 189.088C35.6374 188.518 35.6374 187.958 35.6374 187.388C35.6874 186.338 35.6874 185.268 35.7774 184.188Z" fill="#39393B"/>
<path d="M19.7575 205.338C19.5587 204.859 19.2625 204.426 18.8875 204.068L17.9875 202.958L17.0875 201.828C16.7475 201.408 16.3575 200.988 16.0875 200.548C16.3775 200.968 16.6075 201.438 16.8675 201.878C17.1275 202.318 17.3675 202.718 17.6175 203.138C17.8675 203.558 18.1275 203.978 18.3775 204.408L18.7675 205.078C18.8842 205.309 19.0477 205.513 19.2475 205.678C19.3036 205.698 19.3637 205.705 19.423 205.698C19.4822 205.691 19.539 205.67 19.5887 205.637C19.6383 205.604 19.6795 205.559 19.7088 205.508C19.7382 205.456 19.7549 205.397 19.7575 205.338Z" fill="#39393B"/>
<path d="M32.4675 204.058C32.4675 203.848 32.3575 203.648 32.2975 203.438C32.1575 202.918 31.9975 202.438 31.8175 201.898C31.5175 201.018 31.1875 200.158 30.8975 199.278H30.8275C30.9675 200.208 31.0575 201.128 31.1875 202.058C31.2475 202.518 31.3175 202.978 31.4175 203.438C31.4175 203.658 31.5075 203.888 31.5475 204.118C31.5875 204.348 31.5975 204.328 31.6275 204.428C31.6683 204.592 31.755 204.741 31.8775 204.858C32.0275 205.028 32.3875 205.038 32.4575 204.768C32.5087 204.655 32.536 204.532 32.5375 204.408C32.5272 204.289 32.5037 204.171 32.4675 204.058Z" fill="#39393B"/>
<path d="M46.0575 198.608C45.5575 199.528 44.9075 200.368 44.3275 201.238L43.4775 202.528C43.2275 202.908 42.7475 203.428 42.9875 203.908C43.0198 203.974 43.0717 204.028 43.136 204.064C43.2004 204.1 43.2742 204.115 43.3475 204.108C43.7575 204.048 43.8975 203.688 44.0475 203.368C44.1975 203.048 44.2375 202.948 44.3375 202.728L44.9175 201.398C45.3175 200.478 45.6475 199.538 46.1275 198.648C46.1575 198.608 46.0775 198.608 46.0575 198.608Z" fill="#39393B"/>
<path d="M46.1974 185.828C45.4372 186.696 44.7451 187.622 44.1274 188.598C43.8274 189.098 43.5274 189.598 43.2474 190.108C43.1074 190.358 42.9674 190.618 42.8374 190.878C42.6881 191.16 42.6255 191.48 42.6574 191.798C42.6688 191.861 42.6967 191.921 42.7382 191.97C42.7798 192.02 42.8336 192.058 42.8943 192.08C42.955 192.102 43.0204 192.108 43.0842 192.097C43.1479 192.086 43.2076 192.059 43.2574 192.018C43.5173 191.802 43.7114 191.518 43.8174 191.198C43.9274 190.928 44.0274 190.668 44.1374 190.408C44.3474 189.898 44.5774 189.408 44.8074 188.908C45.2874 187.908 45.7574 186.908 46.2574 185.908C46.2774 185.838 46.2274 185.798 46.1974 185.828Z" fill="#39393B"/>
<path d="M51.9175 184.678C51.8475 184.888 51.6975 185.098 51.6075 185.308C51.5175 185.518 51.4175 185.738 51.3275 185.958C51.1575 186.358 50.9775 186.768 50.8175 187.178L50.3375 188.418C50.1383 188.844 50.01 189.3 49.9575 189.768C49.9575 190.068 50.3575 190.308 50.5575 190.008C50.7781 189.629 50.9368 189.217 51.0275 188.788C51.1475 188.288 51.2875 187.788 51.4075 187.288L51.7075 186.028C51.7575 185.818 51.7975 185.608 51.8375 185.388C51.8775 185.168 51.8875 184.898 51.9575 184.688L51.9175 184.678Z" fill="#39393B"/>
<path d="M43.1175 164.338C43.0842 164.426 43.0406 164.51 42.9875 164.588C42.9242 164.668 42.8502 164.738 42.7675 164.798C42.6457 164.9 42.5381 165.017 42.4475 165.148C42.2524 165.409 42.0753 165.683 41.9175 165.968L41.3775 166.878L41.1175 167.318L41.0175 167.518C40.9565 167.651 40.9161 167.792 40.8975 167.938C40.8916 168.025 40.9116 168.112 40.9551 168.187C40.9986 168.263 41.0637 168.324 41.1419 168.362C41.2201 168.401 41.308 168.415 41.3945 168.404C41.481 168.392 41.5621 168.355 41.6275 168.298C41.7118 168.218 41.7888 168.131 41.8575 168.038C41.9402 167.899 42.0073 167.751 42.0575 167.598L42.2475 167.148L42.6075 166.298C42.7382 166.019 42.8484 165.732 42.9375 165.438C42.9908 165.286 43.0244 165.128 43.0375 164.968C43.0505 164.761 43.1085 164.56 43.2075 164.378C43.2075 164.378 43.1475 164.278 43.1175 164.338Z" fill="#39393B"/>
<path d="M22.6875 166.608C22.6875 166.468 22.6075 166.318 22.5575 166.178C22.5005 166.068 22.4336 165.965 22.3575 165.868L22.0075 165.408L21.2575 164.408C20.7475 163.718 20.2575 163.048 19.6775 162.408C20.0175 163.178 20.3975 163.918 20.7975 164.668L21.4475 165.868C21.5375 166.048 21.6275 166.228 21.7275 166.408C21.8628 166.593 22.0207 166.761 22.1975 166.908C22.2471 166.944 22.3066 166.965 22.3682 166.968C22.4299 166.971 22.4909 166.955 22.5435 166.923C22.5961 166.891 22.638 166.843 22.6636 166.787C22.6893 166.731 22.6976 166.669 22.6875 166.608Z" fill="#39393B"/>
<path d="M17.8675 172.948C17.7665 172.714 17.639 172.492 17.4875 172.288L17.0975 171.828L16.3475 170.928C16.11 170.615 15.8528 170.318 15.5775 170.038C15.2875 169.768 14.9975 169.508 14.7275 169.208C14.7275 169.208 14.6475 169.208 14.6675 169.208C14.8575 169.558 15.0175 169.918 15.1775 170.288C15.3593 170.632 15.5596 170.965 15.7775 171.288L16.3675 172.288C16.4875 172.478 16.5875 172.678 16.7175 172.858C16.8416 173.037 16.9859 173.201 17.1475 173.348C17.2157 173.406 17.3 173.441 17.389 173.45C17.4781 173.459 17.5677 173.44 17.6459 173.397C17.7242 173.354 17.7873 173.287 17.8269 173.207C17.8665 173.127 17.8806 173.036 17.8675 172.948Z" fill="#39393B"/>
<path d="M15.9875 186.058C15.6727 185.58 15.3109 185.134 14.9075 184.728C14.4775 184.328 14.0475 183.928 13.5975 183.548C13.1475 183.168 12.7575 182.898 12.3175 182.548C12.0675 182.378 11.7875 182.238 11.5375 182.038L10.9175 181.558C10.9175 181.558 10.8375 181.558 10.9175 181.618C11.1575 181.798 11.4075 181.978 11.6275 182.178C11.8475 182.378 11.9875 182.568 12.1675 182.758L13.3275 183.988C13.6975 184.388 14.0575 184.788 14.4075 185.198C14.7575 185.608 15.2075 186.018 15.6175 186.418C15.8275 186.698 16.1675 186.318 15.9875 186.058Z" fill="#39393B"/>
<path d="M15.6874 196.058C15.3761 195.646 15.0422 195.252 14.6874 194.878C14.3274 194.518 13.9574 194.168 13.5674 193.878C13.1774 193.588 12.8074 193.238 12.4074 192.948C12.0107 192.628 11.5736 192.363 11.1074 192.158C11.4127 192.536 11.747 192.891 12.1074 193.218C12.4774 193.578 12.8574 193.918 13.2274 194.288C13.5974 194.658 13.9074 194.948 14.2274 195.288C14.5474 195.628 14.9874 195.988 15.3674 196.348C15.5774 196.508 15.8674 196.248 15.6874 196.058Z" fill="#39393B"/>
<path d="M52.0775 167.538C51.9697 167.706 51.8493 167.867 51.7175 168.018L51.3175 168.388C51.0744 168.632 50.8441 168.889 50.6275 169.158L49.9775 169.968C49.7265 170.243 49.5115 170.548 49.3375 170.878C49.3094 170.955 49.3072 171.04 49.3313 171.118C49.3553 171.197 49.4043 171.266 49.4709 171.314C49.5375 171.363 49.618 171.389 49.7003 171.387C49.7827 171.386 49.8624 171.358 49.9275 171.308C50.1786 171.027 50.3967 170.718 50.5775 170.388C50.7575 170.088 50.9575 169.778 51.1375 169.468C51.3238 169.165 51.4908 168.851 51.6375 168.528C51.7175 168.368 51.7675 168.188 51.8575 168.028C51.9483 167.875 52.0484 167.728 52.1575 167.588C52.1975 167.538 52.1175 167.488 52.0775 167.538Z" fill="#39393B"/>
<path d="M55.0175 173.418C54.8475 173.688 54.5975 173.928 54.4075 174.188L53.8975 174.908C53.5775 175.358 53.2475 175.798 52.8975 176.258C52.2575 177.258 51.6175 178.148 51.0475 179.138C50.8375 179.518 51.3575 179.938 51.6175 179.548C52.2875 178.548 52.8575 177.548 53.4475 176.548C53.7175 176.078 53.9775 175.598 54.2275 175.118L54.6175 174.398C54.7775 174.108 54.8775 173.778 55.0475 173.498C55.1175 173.418 55.0475 173.368 55.0175 173.418Z" fill="#39393B"/>
<path d="M64.6875 182.228C64.5671 182.41 64.4261 182.578 64.2675 182.728L63.8275 183.128C63.5475 183.388 63.2875 183.658 63.0275 183.938L62.2875 184.748L61.8875 185.198C61.7097 185.402 61.5919 185.651 61.5475 185.918C61.5396 185.981 61.549 186.046 61.5747 186.105C61.6003 186.164 61.6413 186.215 61.6934 186.253C61.7455 186.291 61.8067 186.314 61.8707 186.32C61.9348 186.326 61.9993 186.315 62.0575 186.288C62.2646 186.191 62.4461 186.047 62.5875 185.868C62.7024 185.712 62.806 185.548 62.8975 185.378C63.1175 185.048 63.3375 184.708 63.5475 184.378C63.7575 184.048 63.9675 183.678 64.1575 183.318L64.4175 182.798C64.5131 182.614 64.6306 182.443 64.7675 182.288C64.8275 182.228 64.7575 182.188 64.6875 182.228Z" fill="#39393B"/>
<path d="M67.3274 189.268C66.6674 189.508 66.0174 189.738 65.3274 189.958C64.6374 190.178 63.9774 190.388 63.3274 190.658C63.2592 190.699 63.2083 190.764 63.184 190.84C63.1598 190.916 63.1639 190.998 63.1957 191.071C63.2274 191.144 63.2846 191.204 63.3566 191.238C63.4286 191.272 63.5106 191.279 63.5874 191.258C64.2474 190.968 64.8774 190.598 65.5174 190.258C66.1574 189.918 66.7174 189.638 67.3174 189.328C67.3874 189.318 67.3574 189.258 67.3274 189.268Z" fill="#39393B"/>
<path d="M69.7575 193.488C68.6075 193.758 67.4375 193.968 66.2875 194.218L64.6075 194.598L63.7075 194.818C63.442 194.844 63.1874 194.937 62.9675 195.088C62.9296 195.115 62.9006 195.154 62.8843 195.198C62.8679 195.242 62.8648 195.29 62.8755 195.336C62.8861 195.382 62.91 195.423 62.9442 195.456C62.9783 195.488 63.0212 195.51 63.0675 195.518C63.3375 195.539 63.6086 195.494 63.8575 195.388L64.7475 195.138L66.3775 194.638C67.5175 194.288 68.6375 193.888 69.7775 193.548C69.8175 193.538 69.7975 193.478 69.7575 193.488Z" fill="#39393B"/>
<path d="M62.4874 201.608C62.2074 201.318 61.9474 200.998 61.6474 200.738C61.3301 200.442 60.9962 200.165 60.6474 199.908C60.2997 199.656 59.9393 199.422 59.5674 199.208L59.0274 198.898C58.9111 198.827 58.7869 198.77 58.6574 198.728C58.551 198.717 58.4438 198.717 58.3374 198.728C58.268 198.723 58.1987 198.738 58.1378 198.772C58.0769 198.805 58.027 198.856 57.9942 198.917C57.9614 198.978 57.9471 199.048 57.953 199.117C57.9589 199.187 57.9847 199.253 58.0274 199.308C58.1606 199.481 58.3316 199.621 58.5274 199.718L59.1074 200.018L60.2274 200.608C60.5874 200.798 60.9474 200.988 61.3174 201.168C61.6874 201.348 62.0974 201.518 62.4774 201.718C62.4774 201.678 62.5174 201.608 62.4874 201.608Z" fill="#39393B"/>
<path d="M58.0775 183.768L57.4175 184.458C57.3075 184.568 57.1975 184.688 57.0975 184.808C56.9975 184.928 56.9075 185.068 56.8075 185.208C56.7881 185.242 56.781 185.281 56.7875 185.32C56.7939 185.358 56.8135 185.394 56.8428 185.42C56.8722 185.445 56.9096 185.46 56.9487 185.462C56.9878 185.463 57.0262 185.451 57.0575 185.428C57.1693 185.305 57.2728 185.174 57.3675 185.038C57.4575 184.908 57.5475 184.768 57.6275 184.628L58.1275 183.798C58.1275 183.798 58.0975 183.738 58.0775 183.768Z" fill="#39393B"/>
<path d="M67.4375 173.678C67.0775 174.198 66.7074 174.678 66.2974 175.188C65.8874 175.698 65.5375 176.108 65.1675 176.578C64.7975 177.048 64.4375 177.528 64.0675 178.008C63.6789 178.468 63.315 178.949 62.9775 179.448C62.9125 179.546 62.8891 179.666 62.9126 179.781C62.936 179.896 63.0043 179.998 63.1025 180.063C63.2006 180.128 63.3205 180.151 63.4358 180.128C63.5512 180.104 63.6525 180.036 63.7174 179.938C64.0575 179.452 64.3713 178.948 64.6575 178.428L65.6575 176.798C65.9575 176.298 66.2475 175.798 66.5375 175.278C66.8422 174.74 67.176 174.219 67.5375 173.718L67.4375 173.678Z" fill="#39393B"/>
<path d="M74.7774 182.608C74.5974 182.298 73.8374 182.608 73.5974 182.718L71.8674 183.228C70.7067 183.535 69.5648 183.909 68.4474 184.348C68.3645 184.392 68.2996 184.463 68.2642 184.55C68.2288 184.637 68.225 184.734 68.2537 184.823C68.2823 184.912 68.3414 184.989 68.4207 185.039C68.5 185.089 68.5944 185.11 68.6874 185.098C69.8544 184.765 70.9999 184.361 72.1174 183.888L73.8174 183.238C73.9774 183.168 74.9474 182.898 74.7774 182.608Z" fill="#39393B"/>
<path d="M75.5075 188.478C74.5075 188.678 73.5575 188.858 72.5775 189.038C71.6301 189.153 70.698 189.371 69.7975 189.688C69.7484 189.714 69.7097 189.756 69.6873 189.807C69.6649 189.858 69.6602 189.916 69.674 189.97C69.6878 190.024 69.7193 190.071 69.7634 190.106C69.8075 190.14 69.8618 190.158 69.9175 190.158C70.8743 190.01 71.8128 189.762 72.7175 189.418C73.6575 189.108 74.5875 188.818 75.5275 188.538C75.5675 188.528 75.5575 188.468 75.5075 188.478Z" fill="#39393B"/>
<path d="M76.5475 198.508C75.5475 198.418 74.5475 198.178 73.5475 197.998C72.5115 197.781 71.4558 197.674 70.3975 197.678C70.0075 197.678 70.0575 198.258 70.3975 198.328C71.4183 198.497 72.4531 198.568 73.4875 198.538C74.4875 198.538 75.5575 198.448 76.5775 198.538L76.5475 198.508Z" fill="#39393B"/>
<path d="M81.1575 185.188C80.4263 185.168 79.6946 185.198 78.9675 185.278C78.6075 185.278 78.2575 185.368 77.8975 185.428C77.5499 185.508 77.2139 185.633 76.8975 185.798C76.8738 185.806 76.8521 185.819 76.8335 185.836C76.815 185.853 76.7999 185.874 76.7892 185.896C76.7786 185.919 76.7725 185.944 76.7713 185.969C76.7702 185.994 76.774 186.019 76.7825 186.043C76.791 186.066 76.8041 186.088 76.8211 186.107C76.838 186.125 76.8584 186.14 76.8812 186.151C76.9039 186.162 76.9286 186.168 76.9537 186.169C76.9788 186.17 77.0038 186.166 77.0275 186.158C77.3655 186.09 77.6994 186.003 78.0275 185.898C78.3475 185.788 78.6675 185.678 79.0275 185.588C79.7386 185.403 80.4649 185.283 81.1975 185.228C81.1975 185.228 81.1875 185.198 81.1575 185.188Z" fill="#39393B"/>
<path d="M79.6175 178.018C78.6875 178.258 77.7475 178.498 76.8175 178.718C75.8875 178.938 74.9775 179.228 74.0575 179.538C73.8375 179.618 73.9575 179.948 74.1875 179.888C75.1175 179.638 76.0275 179.378 76.9275 179.038L79.6375 178.038C79.6375 178.038 79.6875 178.008 79.6175 178.018Z" fill="#39393B"/>
<path d="M67.6275 222.608C67.3575 224.248 67.0375 226.118 66.6875 228.118C66.5875 228.698 66.4775 229.288 66.3775 229.898C65.0175 237.568 63.3175 246.608 61.9275 251.898C59.1775 262.428 52.0275 263.808 52.0275 263.808L52.9375 267.598L53.5275 270.078H14.1675L15.2675 265.518L15.6775 263.808C15.6775 263.808 8.52746 262.428 5.76746 251.898C4.42746 246.748 2.76748 238.058 1.43748 230.528L1.22749 229.308C0.797486 226.858 0.397493 224.568 0.0774926 222.598C-0.0577647 221.792 -0.0155934 220.966 0.201119 220.178C0.417832 219.39 0.803861 218.658 1.33225 218.035C1.86065 217.411 2.5187 216.91 3.26054 216.567C4.00237 216.224 4.81012 216.047 5.62748 216.048H62.0775C62.8958 216.046 63.7046 216.224 64.4473 216.568C65.1899 216.911 65.8485 217.413 66.3771 218.038C66.9057 218.663 67.2915 219.395 67.5074 220.185C67.7234 220.974 67.7644 221.801 67.6275 222.608Z" fill="#90A1D3"/>
<path d="M52.9375 267.608L15.2675 265.608L15.6775 263.898C16.6775 264.348 52.0275 263.898 52.0275 263.898L52.9375 267.608Z" fill="#39393B"/>
<path d="M66.6875 228.158C66.5875 228.738 66.4775 229.328 66.3775 229.938L66.0375 229.658C64.6812 228.55 63.0627 227.809 61.3375 227.508C60.515 227.38 59.6752 227.418 58.8679 227.621C58.0606 227.824 57.3021 228.187 56.6375 228.688C55.5275 229.528 54.5875 230.568 53.5275 231.468C52.5992 232.295 51.4946 232.901 50.2975 233.238C48.8017 233.554 47.2442 233.39 45.8475 232.768C42.9675 231.588 40.8475 229.148 38.1175 227.838C33.3275 225.588 29.0175 229.648 24.8375 231.438C22.707 232.492 20.2568 232.703 17.9775 232.028C15.3475 231.118 13.4675 228.908 10.9275 227.838C8.13752 226.678 4.92754 227.688 2.66754 229.478C2.23899 229.823 1.82843 230.19 1.43753 230.578L1.22754 229.358C1.77863 228.782 2.3774 228.253 3.01752 227.778C4.26715 226.781 5.75954 226.136 7.34128 225.907C8.92302 225.679 10.537 225.876 12.0175 226.478C14.5375 227.598 16.5875 229.958 19.3575 230.478C21.6775 230.918 23.9275 229.888 25.9375 228.828C28.0623 227.509 30.326 226.43 32.6875 225.608C33.9863 225.258 35.3459 225.197 36.6709 225.428C37.9959 225.66 39.2542 226.178 40.3575 226.948C42.9675 228.608 45.3575 231.368 48.6375 231.578C51.4775 231.758 53.2975 229.148 55.3175 227.578C58.9275 224.798 63.2175 225.778 66.6875 228.158Z" fill="#39393B"/>
<path d="M260.54 153.74H175.21C173.592 153.74 172.28 155.052 172.28 156.67V160.03C172.28 161.648 173.592 162.96 175.21 162.96H260.54C262.158 162.96 263.47 161.648 263.47 160.03V156.67C263.47 155.052 262.158 153.74 260.54 153.74Z" fill="#263238"/>
<path d="M259.73 265.62H263.47L259.17 162.96H253.99L259.73 265.62Z" fill="#407BFF"/>
<path opacity="0.6" d="M259.73 265.62H263.47L259.17 162.96H253.99L259.73 265.62Z" fill="white"/>
<path d="M225.3 265.62H221.56L225.86 162.96H231.04L225.3 265.62Z" fill="#407BFF"/>
<path opacity="0.6" d="M225.3 265.62H221.56L225.86 162.96H231.04L225.3 265.62Z" fill="white"/>
<path d="M210.46 265.62H214.2L209.89 162.96H204.72L210.46 265.62Z" fill="#407BFF"/>
<path opacity="0.6" d="M210.46 265.62H214.2L209.89 162.96H204.72L210.46 265.62Z" fill="white"/>
<path d="M176.02 265.62H172.28L176.59 162.96H181.76L176.02 265.62Z" fill="#407BFF"/>
<path opacity="0.6" d="M176.02 265.62H172.28L176.59 162.96H181.76L176.02 265.62Z" fill="white"/>
<g opacity="0.3">
<path d="M259.17 162.95H253.99L254.23 167.32H259.35L259.17 162.95Z" fill="#407BFF"/>
<path d="M225.68 167.32H230.79L231.04 162.95H225.86L225.68 167.32Z" fill="#407BFF"/>
<path d="M204.72 162.95L204.96 167.32H210.08L209.89 162.95H204.72Z" fill="#407BFF"/>
<path d="M176.4 167.32H181.53L181.77 162.95H176.59L176.4 167.32Z" fill="#407BFF"/>
</g>
<path d="M208.05 250.53L199.59 255.03L186.25 237.02L194.72 232.52L208.05 250.53Z" fill="#FFB573"/>
<path d="M196.53 252.25L205.37 246.11C205.442 246.048 205.527 246.003 205.618 245.976C205.709 245.949 205.805 245.941 205.899 245.953C205.993 245.965 206.084 245.997 206.165 246.047C206.246 246.096 206.316 246.162 206.37 246.24L211.66 252.93C211.914 253.299 212.014 253.752 211.937 254.194C211.861 254.635 211.614 255.029 211.25 255.29C208.14 257.37 206.74 258.1 202.67 260.52C200.16 262 194.16 265.52 190.47 267.13C186.78 268.74 185.3 265.04 186.72 264.03C190.09 261.65 194.55 256.97 195.56 253.68C195.716 253.109 196.057 252.606 196.53 252.25Z" fill="#263238"/>
<path opacity="0.2" d="M194.73 232.52L186.25 237.02L192.68 245.69L200.96 240.94L194.73 232.52Z" fill="black"/>
<path d="M215.16 125.85C215.16 125.85 149.42 123.8 149.16 151.27C148.84 190.75 186.31 242.6 186.31 242.6L200.97 232.85C200.97 232.85 175.29 195.16 175.07 164.34C194.44 158.87 240.07 162.34 245.98 146.24C250.82 133.1 248.29 125.85 248.29 125.85H215.16Z" fill="#407BFF"/>
<path opacity="0.2" d="M215.16 125.85C215.16 125.85 149.42 123.8 149.16 151.27C148.84 190.75 186.31 242.6 186.31 242.6L200.97 232.85C200.97 232.85 175.29 195.16 175.07 164.34C194.44 158.87 240.07 162.34 245.98 146.24C250.82 133.1 248.29 125.85 248.29 125.85H215.16Z" fill="black"/>
<path d="M204.95 235.35L187.51 246.03L182.04 240.48L201.2 228.42L204.95 235.35Z" fill="#263238"/>
<path d="M194.7 255.56C195.398 255.055 196.036 254.471 196.6 253.82C196.63 253.788 196.649 253.748 196.656 253.705C196.663 253.662 196.657 253.618 196.639 253.578C196.621 253.538 196.591 253.505 196.554 253.482C196.517 253.459 196.474 253.448 196.43 253.45C196.06 253.45 192.78 253.45 192.08 254.52C192 254.64 191.951 254.778 191.939 254.921C191.927 255.064 191.951 255.209 192.01 255.34C192.076 255.547 192.196 255.733 192.358 255.879C192.519 256.025 192.717 256.125 192.93 256.17C193.575 256.192 194.205 255.974 194.7 255.56ZM195.91 253.91C194.7 255.17 193.63 255.84 193.01 255.73C192.871 255.699 192.743 255.631 192.641 255.532C192.538 255.433 192.465 255.308 192.43 255.17C192.393 255.11 192.373 255.041 192.373 254.97C192.373 254.899 192.393 254.83 192.43 254.77C192.83 254.21 194.6 253.96 195.91 253.91Z" fill="#407BFF"/>
<path d="M196.56 253.86C196.588 253.838 196.612 253.811 196.63 253.78C196.649 253.747 196.659 253.709 196.659 253.67C196.659 253.631 196.649 253.593 196.63 253.56C196.57 253.46 195.17 251.08 193.85 250.86C193.672 250.825 193.489 250.834 193.315 250.884C193.141 250.935 192.982 251.026 192.85 251.15C192.699 251.262 192.59 251.421 192.54 251.602C192.489 251.783 192.5 251.976 192.57 252.15C192.99 253.15 195.3 253.96 196.41 253.89L196.56 253.86ZM193.27 251.38C193.342 251.326 193.425 251.288 193.513 251.267C193.6 251.247 193.691 251.244 193.78 251.26C194.57 251.39 195.53 252.64 196.03 253.4C194.94 253.3 193.3 252.6 193.03 251.95C192.98 251.83 192.95 251.66 193.2 251.44C193.22 251.46 193.24 251.43 193.27 251.38Z" fill="#407BFF"/>
<path d="M192.4 261.57L182.9 261.12L181.34 238.69L190.84 239.14L192.4 261.57Z" fill="#FFB573"/>
<path d="M182.68 259.5L193.43 259.16C193.611 259.146 193.791 259.205 193.93 259.323C194.068 259.441 194.155 259.609 194.17 259.79L194.96 268.28C194.976 268.729 194.814 269.167 194.508 269.497C194.203 269.826 193.779 270.022 193.33 270.04C189.59 270.04 187.79 269.93 183.06 270.04C180.15 270.13 174.43 270.56 170.44 270.04C166.45 269.52 167.06 265.61 168.79 265.46C172.9 265.13 178.41 262.29 181.05 260.08C181.515 259.712 182.088 259.509 182.68 259.5Z" fill="#263238"/>
<path d="M179.34 261.27C180.2 261.224 181.051 261.083 181.88 260.85C181.922 260.839 181.959 260.816 181.988 260.784C182.017 260.752 182.036 260.712 182.042 260.67C182.048 260.627 182.042 260.584 182.024 260.545C182.006 260.506 181.977 260.473 181.94 260.45C181.63 260.25 178.86 258.45 177.71 258.97C177.579 259.027 177.464 259.117 177.376 259.231C177.289 259.344 177.232 259.478 177.21 259.62C177.151 259.83 177.148 260.051 177.203 260.262C177.257 260.473 177.367 260.665 177.52 260.82C178.048 261.195 178.698 261.356 179.34 261.27ZM181.25 260.55C179.55 260.94 178.25 260.93 177.83 260.5C177.732 260.396 177.664 260.269 177.63 260.13C177.597 259.992 177.6 259.847 177.64 259.71C177.648 259.64 177.675 259.574 177.717 259.518C177.759 259.462 177.815 259.418 177.88 259.39C178.5 259.12 180.12 259.87 181.25 260.55Z" fill="#407BFF"/>
<path d="M181.83 260.86C181.863 260.869 181.897 260.869 181.93 260.86C181.963 260.842 181.99 260.816 182.009 260.785C182.029 260.753 182.039 260.717 182.04 260.68C182.04 260.56 182.18 257.8 181.18 256.9C181.049 256.775 180.89 256.683 180.715 256.635C180.541 256.586 180.357 256.581 180.18 256.62C179.989 256.631 179.807 256.705 179.663 256.832C179.52 256.96 179.423 257.131 179.39 257.32C179.2 258.32 180.69 260.32 181.66 260.86C181.715 260.878 181.775 260.878 181.83 260.86ZM180.4 257.02C180.488 257.015 180.576 257.028 180.659 257.059C180.742 257.09 180.817 257.138 180.88 257.2C181.48 257.74 181.6 259.31 181.61 260.2C180.75 259.52 179.75 258.04 179.88 257.35C179.88 257.22 179.97 257.06 180.29 257.01L180.4 257.02Z" fill="#407BFF"/>
<path opacity="0.2" d="M190.85 239.14L181.34 238.69L182.23 251.52L191.71 251.51L190.85 239.14Z" fill="black"/>
<path d="M238.54 125.85C238.54 125.85 169.76 132.35 172.26 153.06C175.88 182.92 177.66 247.28 177.66 247.28L195.19 247.97C195.19 247.97 202.62 189.97 198.78 159.34C216.58 159.34 260.16 160.62 264.13 149.9C267.64 140.42 266.39 125.9 266.39 125.9L238.54 125.85Z" fill="#407BFF"/>
<path d="M197.13 249.05L176.09 248.01L175.33 238.85L198.41 240.44L197.13 249.05Z" fill="#263238"/>
<path d="M223.28 65.19C223.15 66.87 223.02 68.33 222.83 69.87C222.64 71.41 222.44 72.87 222.2 74.43C221.73 77.43 221.13 80.43 220.43 83.5C219.067 89.8433 216.85 95.9724 213.84 101.72C212.942 103.335 211.908 104.87 210.75 106.31C209.456 107.935 207.925 109.358 206.21 110.53C202.91 112.722 199.093 114.011 195.14 114.27C191.678 114.497 188.203 114.159 184.85 113.27C183.268 112.865 181.711 112.364 180.19 111.77C179.43 111.48 178.69 111.16 177.96 110.77C177.23 110.38 176.55 110.06 175.71 109.61L178.34 102.92L180.25 103.16L182.25 103.36C183.59 103.47 184.91 103.54 186.25 103.54C188.679 103.581 191.103 103.302 193.46 102.71C195.348 102.257 197.096 101.347 198.55 100.06C199.173 99.4767 199.73 98.8261 200.21 98.12C200.801 97.2104 201.329 96.2615 201.79 95.28C202.848 92.9853 203.714 90.6072 204.38 88.17C205.14 85.64 205.75 82.99 206.3 80.29C206.85 77.59 207.3 74.86 207.75 72.11L208.34 67.97C208.52 66.61 208.72 65.15 208.85 63.97L223.28 65.19Z" fill="#FFB573"/>
<path d="M223.34 57.04C216.34 50.25 207.64 54.26 204.18 67.04C202.222 73.8623 200.883 80.8472 200.18 87.91L222.45 92.51C226.5 80.32 230.54 64 223.34 57.04Z" fill="#263238"/>
<path opacity="0.3" d="M216.17 70.94C217.76 69.51 222.28 75.94 225.04 83.87C224.26 86.87 223.37 89.76 222.46 92.47L209.06 89.7C210.13 81.78 212.6 74.16 216.17 70.94Z" fill="black"/>
<path d="M176.83 99.92L171.83 98.01L171.61 108.62C171.61 108.62 180.01 112.25 181.72 108.08L181.12 105.43C180.831 104.262 180.299 103.169 179.56 102.219C178.821 101.27 177.891 100.487 176.83 99.92Z" fill="#FFB573"/>
<path d="M165.93 98.29L162.98 107.19L171.65 108.62L171.87 98.01L165.93 98.29Z" fill="#FFB573"/>
<path d="M173.49 105.38C173.384 105.382 173.281 105.353 173.19 105.299C173.1 105.244 173.027 105.164 172.98 105.07L164.05 87.88C163.979 87.7446 163.965 87.5867 164.01 87.4406C164.055 87.2946 164.155 87.1722 164.29 87.1C164.427 87.0326 164.585 87.021 164.73 87.0676C164.876 87.1142 164.998 87.2154 165.07 87.35L173.97 104.51C174.041 104.645 174.055 104.803 174.01 104.949C173.965 105.095 173.865 105.218 173.73 105.29C173.657 105.335 173.575 105.366 173.49 105.38Z" fill="#263238"/>
<path d="M222.51 50.23L233.19 47.23L246.91 46.59C248.994 46.4901 251.053 47.0781 252.769 48.2635C254.486 49.4489 255.765 51.166 256.41 53.15C259.02 61.15 261.41 72.67 263.18 82.64C265.18 93.83 266.18 110.64 266.39 125.9H215.16C213.99 94.05 209.94 75.22 208.16 64.8C207.805 62.7579 208.129 60.6556 209.083 58.8152C210.036 56.9749 211.567 55.4977 213.44 54.61L222.51 50.23Z" fill="#263238"/>
<path opacity="0.3" d="M263.18 82.6C261.8 74.75 260.02 65.91 258.04 58.6C248.91 57.06 244.49 77.08 247.2 87.01C249.91 96.94 264.36 90.92 264.36 90.92C264.02 87.93 263.62 85.12 263.18 82.6Z" fill="black"/>
<path d="M231.37 26.38C233.57 31.78 232.25 41.68 227.91 38.88C223.57 36.08 230.03 23.1 231.37 26.38Z" fill="#263238"/>
<path d="M228.97 29.84L224.82 36.18L219.18 44.81C219.909 45.5484 220.498 46.4122 220.92 47.36C221.92 49.44 222.81 50.99 218.44 53.97C217.971 54.2711 217.598 54.7007 217.365 55.2077C217.133 55.7148 217.051 56.2779 217.13 56.83C217.39 58.18 218.73 59.49 223.44 58.66C227.979 57.791 232.121 55.4922 235.26 52.1C236.83 50.53 236.47 49.35 234.96 47.72C230.64 43.12 229.36 35.77 228.97 29.84Z" fill="#FFB573"/>
<path opacity="0.2" d="M220.53 42.68L223.99 36.53C224.063 36.69 224.143 36.86 224.23 37.04C224.537 37.7995 224.785 38.5819 224.97 39.38C225.6 42.11 223.48 46.01 221.15 47.87L220.88 47.34C220.46 46.4546 219.922 45.6303 219.28 44.89C219.239 44.8493 219.192 44.8155 219.14 44.79L220.53 42.68Z" fill="black"/>
<path d="M199.76 22.38C198.47 25.29 203.04 33.53 208.27 30.2C213.5 26.87 202.04 17.23 199.76 22.38Z" fill="#263238"/>
<path d="M224.97 60.43C224.901 60.431 224.834 60.4074 224.781 60.3635C224.728 60.3195 224.692 60.258 224.68 60.19C224.3 57.72 222.68 56.19 220.85 54.33C218.53 52.06 215.9 49.48 215.04 44.43C215.027 44.3558 215.044 44.2793 215.087 44.2174C215.13 44.1555 215.196 44.1133 215.27 44.1C215.344 44.0868 215.421 44.1035 215.483 44.1467C215.545 44.1898 215.587 44.2557 215.6 44.33C216.44 49.2 219 51.71 221.25 53.92C223.1 55.73 224.84 57.44 225.25 60.1C225.257 60.1376 225.257 60.1762 225.248 60.2135C225.24 60.2508 225.224 60.286 225.201 60.3169C225.179 60.3478 225.15 60.3738 225.117 60.3933C225.085 60.4127 225.048 60.4252 225.01 60.43H224.97Z" fill="white"/>
<path d="M227.1 19.45C229.1 28.51 230.66 33.72 227.43 39.45C222.55 48.12 210.35 46.94 205.71 38.6C201.53 31.1 199.04 17.54 206.81 11.69C208.548 10.3975 210.585 9.56469 212.731 9.26881C214.877 8.97293 217.063 9.22352 219.086 9.99736C221.11 10.7712 222.905 12.0432 224.306 13.6956C225.707 15.348 226.668 17.3273 227.1 19.45Z" fill="#FFB573"/>
<path d="M229.79 25.67C226.67 30.1 218.49 21.97 219.16 16.51C211.04 21.13 202.22 27.3 196.87 22.1C190.69 16.1 192.38 7.49999 199.62 6.72999C198.34 9.22999 205.62 10.34 209.49 6.47999C216.04 -1.19209e-05 226.39 1.34998 226.2 6.59998C231.19 4.61998 236.64 15.94 229.79 25.67Z" fill="#263238"/>
<path d="M225.24 8.07001C227.17 6.63001 225.89 1.5 221.41 0C225.67 0.55 230.08 3.72001 225.24 8.07001Z" fill="#263238"/>
<path d="M232.68 25.27C232.766 27.3416 232.09 29.3729 230.78 30.98C229.06 33.03 226.41 31.4 225.78 28.84C225.23 26.55 225.94 23 228.2 21.9C230.46 20.8 232.56 22.69 232.68 25.27Z" fill="#FFB573"/>
<path d="M214.1 26.8C214.34 27.53 214.16 28.27 213.68 28.44C213.2 28.61 212.68 28.16 212.39 27.44C212.1 26.72 212.33 25.97 212.81 25.79C213.29 25.61 213.86 26.06 214.1 26.8Z" fill="#263238"/>
<path d="M205.9 29.8C206.15 30.54 205.96 31.28 205.48 31.45C205 31.62 204.43 31.17 204.19 30.45C203.95 29.73 204.14 28.98 204.61 28.81C205.08 28.64 205.66 29.07 205.9 29.8Z" fill="#263238"/>
<path d="M208.71 29.38C208.743 31.5673 208.487 33.7495 207.95 35.87C209.42 36.41 211.04 35.14 211.04 35.14L208.71 29.38Z" fill="#ED893E"/>
<path d="M213.1 39.21C213.952 38.9301 214.737 38.4799 215.41 37.8869C216.082 37.2938 216.626 36.5701 217.01 35.76C217.033 35.7043 217.034 35.6415 217.012 35.5854C216.989 35.5292 216.945 35.4842 216.89 35.46C216.833 35.4397 216.77 35.4419 216.714 35.466C216.659 35.4901 216.614 35.5344 216.59 35.59C216.16 36.4634 215.536 37.2262 214.764 37.8192C213.992 38.4123 213.094 38.8198 212.14 39.01C212.109 39.014 212.079 39.0245 212.051 39.0406C212.024 39.0568 212.001 39.0784 211.983 39.104C211.964 39.1296 211.951 39.1588 211.945 39.1896C211.938 39.2204 211.938 39.2523 211.944 39.2832C211.95 39.3141 211.963 39.3435 211.981 39.3693C211.999 39.3952 212.022 39.4172 212.049 39.4337C212.075 39.4503 212.105 39.4612 212.137 39.4657C212.168 39.4702 212.2 39.4683 212.23 39.46C212.525 39.3959 212.816 39.3124 213.1 39.21Z" fill="#263238"/>
<path d="M214.85 23.62C214.92 23.587 214.979 23.535 215.02 23.47C215.084 23.3676 215.105 23.2442 215.079 23.1263C215.053 23.0085 214.981 22.9056 214.88 22.84C214.288 22.4407 213.608 22.1935 212.898 22.1203C212.188 22.047 211.471 22.15 210.81 22.42C210.755 22.4447 210.705 22.4803 210.664 22.5247C210.623 22.569 210.591 22.6212 210.57 22.6782C210.55 22.7352 210.541 22.7957 210.544 22.8561C210.548 22.9166 210.563 22.9757 210.59 23.03C210.644 23.138 210.738 23.2206 210.852 23.2599C210.966 23.2991 211.091 23.292 211.2 23.24C211.721 23.0387 212.284 22.9662 212.839 23.0289C213.395 23.0916 213.927 23.2875 214.39 23.6C214.457 23.6466 214.536 23.6732 214.617 23.6768C214.699 23.6803 214.779 23.6606 214.85 23.62Z" fill="#263238"/>
<path d="M204.28 25.06C204.299 24.9845 204.299 24.9055 204.28 24.83C204.232 24.7192 204.141 24.6318 204.029 24.5869C203.917 24.542 203.791 24.5431 203.68 24.59C203.014 24.8481 202.423 25.2673 201.958 25.8101C201.494 26.3528 201.172 27.0022 201.02 27.7C201 27.818 201.028 27.9391 201.097 28.0366C201.167 28.1342 201.272 28.2001 201.39 28.22C201.508 28.2399 201.629 28.2121 201.727 28.1427C201.824 28.0733 201.89 27.968 201.91 27.85C202.04 27.3048 202.301 26.7994 202.671 26.3778C203.04 25.9561 203.507 25.6308 204.03 25.43C204.1 25.3947 204.159 25.3421 204.203 25.2774C204.247 25.2127 204.273 25.1378 204.28 25.06Z" fill="#263238"/>
<path d="M254.64 53.38C255.64 55 256.44 56.46 257.27 58.02C258.1 59.58 258.9 61.1 259.68 62.66C261.26 65.77 262.68 68.97 264.06 72.23C265.44 75.49 266.65 78.85 267.69 82.35C268.828 86.0236 269.592 89.8028 269.97 93.63C270.172 95.8642 270.095 98.1149 269.74 100.33C269.512 101.791 269.067 103.21 268.42 104.54C267.671 106.043 266.631 107.382 265.36 108.48C264.216 109.474 262.911 110.266 261.5 110.82C260.316 111.285 259.086 111.62 257.83 111.82C255.709 112.152 253.555 112.209 251.42 111.99C249.513 111.828 247.621 111.524 245.76 111.08C243.983 110.675 242.227 110.181 240.5 109.6C237.106 108.476 233.808 107.078 230.64 105.42L233.17 98.69C239.39 99.87 246.07 100.96 251.68 100.62C252.907 100.556 254.122 100.348 255.3 100C256.3 99.7 256.81 99.25 256.77 99.11C256.73 98.97 256.71 99.11 256.69 99.01C256.67 98.91 256.69 98.9 256.69 98.39C256.752 97.266 256.685 96.1387 256.49 95.03C256.012 92.1761 255.265 89.3737 254.26 86.66C253.26 83.76 252.05 80.83 250.74 77.93C249.43 75.03 248.02 72.12 246.59 69.22C245.87 67.7667 245.127 66.33 244.36 64.91L242.1 60.72L254.64 53.38Z" fill="#FFB573"/>
<path d="M249.97 46.69C240.31 45.22 235.56 53.51 240.11 65.89C242.459 72.5868 245.411 79.0566 248.93 85.22L269.76 76.09C265.97 63.84 259.85 48.2 249.97 46.69Z" fill="#263238"/>
<path d="M227.81 97.77L223.35 99.11L229.68 108.11C229.68 108.11 239.06 104.75 237.14 100.67L234.78 99.33C232.76 98.16 230.2 96.95 227.81 97.77Z" fill="#FFB573"/>
<path d="M219.4 105.3L223.87 109.77L229.68 108.1L223.35 99.11L219.4 105.3Z" fill="#FFB573"/>
<path d="M229.15 28.13C229.945 28.13 230.59 27.351 230.59 26.39C230.59 25.429 229.945 24.65 229.15 24.65C228.355 24.65 227.71 25.429 227.71 26.39C227.71 27.351 228.355 28.13 229.15 28.13Z" fill="white"/>
<path d="M230.34 30.99L229.51 30.96L229 26.95L230.58 26.6L230.34 30.99Z" fill="white"/>
<path d="M236.08 106.58C233.08 106.58 230.42 106.13 228.81 104.67C228.209 104.092 227.742 103.39 227.44 102.613C227.138 101.836 227.008 101.002 227.06 100.17C227.151 96.0463 227.794 91.9534 228.97 88C230.36 82.55 231.46 78.25 228.12 72.94C222.8 64.51 224.39 52.72 228.12 45.33C230.97 39.68 229.97 33.38 229.61 31.06C229.56 30.76 229.52 30.52 229.5 30.36C229.496 30.3224 229.499 30.2844 229.51 30.2482C229.521 30.212 229.539 30.1784 229.564 30.1495C229.588 30.1205 229.618 30.0967 229.652 30.0797C229.685 30.0626 229.722 30.0525 229.76 30.05C229.835 30.0415 229.911 30.0629 229.971 30.1096C230.031 30.1564 230.07 30.2247 230.08 30.3C230.08 30.45 230.13 30.68 230.17 30.97C230.55 33.38 231.54 39.77 228.6 45.59C224.95 52.84 223.39 64.39 228.6 72.59C232.07 78.1 230.89 82.73 229.52 88.09C228.368 91.9895 227.739 96.0248 227.65 100.09C227.596 100.842 227.707 101.597 227.974 102.301C228.242 103.006 228.66 103.644 229.2 104.17C231.9 106.6 237.86 105.98 243.62 105.38C246.2 105.12 248.87 104.84 251.22 104.84C251.297 104.84 251.371 104.871 251.425 104.925C251.479 104.979 251.51 105.053 251.51 105.13C251.51 105.207 251.479 105.281 251.425 105.335C251.371 105.389 251.297 105.42 251.22 105.42C248.9 105.42 246.22 105.69 243.68 105.96C241.159 106.294 238.622 106.501 236.08 106.58Z" fill="white"/>
<path d="M263.19 104.44H251.81C251.479 104.44 251.21 104.709 251.21 105.04V105.84C251.21 106.171 251.479 106.44 251.81 106.44H263.19C263.521 106.44 263.79 106.171 263.79 105.84V105.04C263.79 104.709 263.521 104.44 263.19 104.44Z" fill="white"/>
<path d="M334.61 113.1H57.33C56.4476 113.097 55.6022 112.746 54.9782 112.122C54.3543 111.498 54.0026 110.652 54 109.77C54.0026 108.888 54.3543 108.042 54.9782 107.418C55.6022 106.794 56.4476 106.443 57.33 106.44H334.61C335.492 106.443 336.338 106.794 336.962 107.418C337.586 108.042 337.937 108.888 337.94 109.77C337.937 110.652 337.586 111.498 336.962 112.122C336.338 112.746 335.492 113.097 334.61 113.1Z" fill="#407BFF"/>
<path opacity="0.3" d="M334.61 113.1H269.7C268.818 113.097 267.972 112.746 267.348 112.122C266.724 111.498 266.373 110.652 266.37 109.77C266.373 108.888 266.724 108.042 267.348 107.418C267.972 106.794 268.818 106.443 269.7 106.44H334.61C335.492 106.443 336.338 106.794 336.962 107.418C337.586 108.042 337.937 108.888 337.94 109.77C337.937 110.652 337.586 111.498 336.962 112.122C336.338 112.746 335.492 113.097 334.61 113.1Z" fill="#263238"/>
<path d="M331.55 270H337.94L330.59 113.1H321.75L331.55 270Z" fill="#263238"/>
<path opacity="0.1" d="M331.55 270H337.94L330.59 113.1H321.75L331.55 270Z" fill="white"/>
<path d="M272.76 270H266.37L273.72 113.1H282.56L272.76 270Z" fill="#263238"/>
<path opacity="0.2" d="M272.76 270H266.37L273.72 113.1H282.56L272.76 270Z" fill="white"/>
<path d="M119.19 270H125.57L118.22 113.1H109.38L119.19 270Z" fill="#263238"/>
<path opacity="0.1" d="M119.19 270H125.57L118.22 113.1H109.38L119.19 270Z" fill="white"/>
<path d="M60.39 270H54L61.35 113.1H70.19L60.39 270Z" fill="#263238"/>
<path opacity="0.2" d="M60.39 270H54L61.35 113.1H70.19L60.39 270Z" fill="white"/>
<path d="M276.46 121.45H63.21V134.6H276.46V121.45Z" fill="#263238"/>
<path opacity="0.2" d="M276.46 121.45H63.21V134.6H276.46V121.45Z" fill="white"/>
<path d="M98.3 97.5999C97.9305 97.5999 97.5759 97.746 97.3136 98.0064C97.0513 98.2668 96.9027 98.6204 96.9 98.9899V104.99C96.9 105.361 97.0475 105.717 97.3101 105.98C97.5726 106.242 97.9287 106.39 98.3 106.39H143.65C143.77 106.39 143.886 106.343 143.972 106.259C144.058 106.175 144.107 106.06 144.11 105.94V97.9999C144.107 97.8797 144.058 97.7652 143.972 97.6811C143.886 97.597 143.77 97.5499 143.65 97.5499L98.3 97.5999Z" fill="#407BFF"/>
<path opacity="0.9" d="M125.14 98.4399H144.14V105.6H125.14C124.925 105.6 124.719 105.515 124.567 105.363C124.415 105.211 124.33 105.005 124.33 104.79V99.2399C124.333 99.0269 124.419 98.8234 124.571 98.6736C124.722 98.5239 124.927 98.4399 125.14 98.4399Z" fill="white"/>
<path d="M122.02 97.5899H76.2101C75.4369 97.5899 74.8101 98.2167 74.8101 98.9899V105.04C74.8101 105.813 75.4369 106.44 76.2101 106.44H122.02C122.793 106.44 123.42 105.813 123.42 105.04V98.9899C123.42 98.2167 122.793 97.5899 122.02 97.5899Z" fill="#407BFF"/>
<path opacity="0.2" d="M122.02 97.5899H76.2101C75.4369 97.5899 74.8101 98.2167 74.8101 98.9899V105.04C74.8101 105.813 75.4369 106.44 76.2101 106.44H122.02C122.793 106.44 123.42 105.813 123.42 105.04V98.9899C123.42 98.2167 122.793 97.5899 122.02 97.5899Z" fill="black"/>
<path opacity="0.5" d="M99.49 97.5899H92.54C92.2252 97.5899 91.97 97.8451 91.97 98.1599V105.87C91.97 106.185 92.2252 106.44 92.54 106.44H99.49C99.8048 106.44 100.06 106.185 100.06 105.87V98.1599C100.06 97.8451 99.8048 97.5899 99.49 97.5899Z" fill="#407BFF"/>
<path opacity="0.5" d="M109.52 97.5899H102.58C102.265 97.5899 102.01 97.8451 102.01 98.1599V105.87C102.01 106.185 102.265 106.44 102.58 106.44H109.52C109.835 106.44 110.09 106.185 110.09 105.87V98.1599C110.09 97.8451 109.835 97.5899 109.52 97.5899Z" fill="#407BFF"/>
<path d="M90.1 86.6999C89.9161 86.6999 89.734 86.7361 89.5642 86.8065C89.3943 86.8769 89.24 86.98 89.11 87.11C88.98 87.24 88.8769 87.3943 88.8065 87.5642C88.7362 87.734 88.7 87.9161 88.7 88.0999V96.1999C88.7 96.3838 88.7362 96.5658 88.8065 96.7357C88.8769 96.9055 88.98 97.0599 89.11 97.1899C89.24 97.3199 89.3943 97.423 89.5642 97.4934C89.734 97.5637 89.9161 97.5999 90.1 97.5999H139.23C139.35 97.5973 139.465 97.5477 139.549 97.4617C139.633 97.3757 139.68 97.2602 139.68 97.1399V87.1399C139.68 87.0196 139.633 86.9041 139.549 86.8181C139.465 86.7322 139.35 86.6825 139.23 86.6799L90.1 86.6999Z" fill="#407BFF"/>
<path opacity="0.9" d="M116.97 87.5399H139.71V96.7499H116.97C116.755 96.7499 116.549 96.6646 116.397 96.5127C116.245 96.3608 116.16 96.1547 116.16 95.9399V88.3299C116.165 88.1186 116.253 87.9176 116.404 87.77C116.556 87.6224 116.759 87.5399 116.97 87.5399Z" fill="white"/>
<path d="M113.81 86.7H75.29C74.5168 86.7 73.89 87.3268 73.89 88.1V96.19C73.89 96.9632 74.5168 97.59 75.29 97.59H113.81C114.583 97.59 115.21 96.9632 115.21 96.19V88.1C115.21 87.3268 114.583 86.7 113.81 86.7Z" fill="#407BFF"/>
<path opacity="0.2" d="M113.81 86.7H75.29C74.5168 86.7 73.89 87.3268 73.89 88.1V96.19C73.89 96.9632 74.5168 97.59 75.29 97.59H113.81C114.583 97.59 115.21 96.9632 115.21 96.19V88.1C115.21 87.3268 114.583 86.7 113.81 86.7Z" fill="white"/>
<path opacity="0.6" d="M110.2 88.8599H81.99C81.5206 88.8599 81.14 89.2405 81.14 89.7099V94.5799C81.14 95.0494 81.5206 95.4299 81.99 95.4299H110.2C110.669 95.4299 111.05 95.0494 111.05 94.5799V89.7099C111.05 89.2405 110.669 88.8599 110.2 88.8599Z" fill="#407BFF"/>
<path d="M104.51 81.4899C103.74 81.4899 103.11 81.8599 103.11 82.3099V85.8799C103.11 86.3299 103.74 86.6999 104.51 86.6999H149.87C150.12 86.6999 150.32 86.5799 150.32 86.4399V81.7599C150.32 81.6099 150.12 81.4899 149.87 81.4899H104.51Z" fill="#407BFF"/>
<path opacity="0.9" d="M131.17 81.9799H150.32V86.1999H131.17C131.006 86.1999 130.848 86.1346 130.732 86.0183C130.615 85.9021 130.55 85.7444 130.55 85.5799V82.5799C130.555 82.419 130.623 82.2664 130.739 82.1544C130.854 82.0424 131.009 81.9798 131.17 81.9799Z" fill="white"/>
<path d="M128.56 81.4799H82.09C81.4991 81.4799 81.02 81.959 81.02 82.5499V85.6299C81.02 86.2209 81.4991 86.6999 82.09 86.6999H128.56C129.151 86.6999 129.63 86.2209 129.63 85.6299V82.5499C129.63 81.959 129.151 81.4799 128.56 81.4799Z" fill="#407BFF"/>
<path opacity="0.2" d="M128.56 81.4799H82.09C81.4991 81.4799 81.02 81.959 81.02 82.5499V85.6299C81.02 86.2209 81.4991 86.6999 82.09 86.6999H128.56C129.151 86.6999 129.63 86.2209 129.63 85.6299V82.5499C129.63 81.959 129.151 81.4799 128.56 81.4799Z" fill="black"/>
<path opacity="0.5" d="M87.93 81.4799H86.48C86.364 81.4799 86.27 81.5739 86.27 81.6899V86.4899C86.27 86.6059 86.364 86.6999 86.48 86.6999H87.93C88.046 86.6999 88.14 86.6059 88.14 86.4899V81.6899C88.14 81.5739 88.046 81.4799 87.93 81.4799Z" fill="#407BFF"/>
<path opacity="0.5" d="M125.65 81.4799H124.23C124.114 81.4799 124.02 81.5739 124.02 81.6899V86.4899C124.02 86.6059 124.114 86.6999 124.23 86.6999H125.65C125.766 86.6999 125.86 86.6059 125.86 86.4899V81.6899C125.86 81.5739 125.766 81.4799 125.65 81.4799Z" fill="#407BFF"/>
<path d="M96.31 73.95C95.54 73.95 94.91 74.3199 94.91 74.7699V80.6599C94.91 81.1199 95.54 81.4899 96.31 81.4899H145.44C145.69 81.4899 145.9 81.3699 145.9 81.2199V74.2199C145.9 74.0699 145.69 73.95 145.44 73.95H96.31Z" fill="#407BFF"/>
<path opacity="0.9" d="M122.97 74.4399H145.9V80.9899H122.97C122.806 80.9899 122.648 80.9246 122.532 80.8083C122.415 80.6921 122.35 80.5344 122.35 80.3699V75.0599C122.35 74.8955 122.415 74.7378 122.532 74.6215C122.648 74.5053 122.806 74.4399 122.97 74.4399Z" fill="white"/>
<path d="M120.35 73.9399H81.17C80.579 73.9399 80.1 74.419 80.1 75.0099V80.4099C80.1 81.0009 80.579 81.4799 81.17 81.4799H120.35C120.941 81.4799 121.42 81.0009 121.42 80.4099V75.0099C121.42 74.419 120.941 73.9399 120.35 73.9399Z" fill="#407BFF"/>
<path opacity="0.1" d="M120.35 73.9399H81.17C80.579 73.9399 80.1 74.419 80.1 75.0099V80.4099C80.1 81.0009 80.579 81.4799 81.17 81.4799H120.35C120.941 81.4799 121.42 81.0009 121.42 80.4099V75.0099C121.42 74.419 120.941 73.9399 120.35 73.9399Z" fill="black"/>
<path d="M205.89 104.78H164.62C164.399 104.78 164.187 104.867 164.03 105.022C163.872 105.178 163.783 105.389 163.78 105.61C163.783 105.831 163.872 106.042 164.03 106.197C164.187 106.353 164.399 106.44 164.62 106.44H205.89C206.11 106.44 206.321 106.352 206.477 106.197C206.633 106.041 206.72 105.83 206.72 105.61C206.72 105.39 206.633 105.179 206.477 105.023C206.321 104.867 206.11 104.78 205.89 104.78Z" fill="white"/>
<path d="M286.63 102.8H313.75L316.2 106.34H284.18L286.63 102.8Z" fill="#263238"/>
<path d="M328.51 42.21C328.51 42.9319 328.296 43.6376 327.895 44.2378C327.494 44.838 326.924 45.3059 326.257 45.5821C325.59 45.8584 324.856 45.9307 324.148 45.7898C323.44 45.649 322.789 45.3014 322.279 44.7909C321.769 44.2804 321.421 43.6301 321.28 42.922C321.139 42.214 321.212 41.4801 321.488 40.8132C321.764 40.1462 322.232 39.5762 322.832 39.1751C323.432 38.774 324.138 38.56 324.86 38.56C325.34 38.5586 325.815 38.6521 326.258 38.8351C326.702 39.0181 327.105 39.2869 327.444 39.6261C327.783 39.9653 328.052 40.3682 328.235 40.8116C328.418 41.255 328.511 41.7303 328.51 42.21Z" fill="black"/>
<path d="M301.09 105.2C300.9 105.199 300.713 105.152 300.545 105.062C300.378 104.972 300.235 104.843 300.129 104.685C300.023 104.527 299.958 104.345 299.939 104.156C299.92 103.967 299.948 103.776 300.02 103.6L326.15 41.7599C326.285 41.5017 326.512 41.3036 326.786 41.2051C327.06 41.1065 327.362 41.1148 327.63 41.2282C327.898 41.3416 328.114 41.5518 328.235 41.8171C328.355 42.0824 328.371 42.3832 328.28 42.6599L302.15 104.49C302.062 104.699 301.915 104.878 301.726 105.004C301.538 105.13 301.317 105.198 301.09 105.2Z" fill="#263238"/>
<path d="M327.21 43.3799C326.962 43.3772 326.72 43.2967 326.52 43.1499L279.07 7.55993C278.826 7.37693 278.665 7.10451 278.622 6.80258C278.578 6.50064 278.657 6.19395 278.84 5.94995C279.023 5.70595 279.295 5.54463 279.597 5.50149C279.899 5.45836 280.206 5.53694 280.45 5.71994L327.91 41.2899C328.102 41.4372 328.243 41.6407 328.313 41.872C328.384 42.1033 328.38 42.3508 328.303 42.58C328.226 42.8091 328.079 43.0084 327.883 43.1501C327.687 43.2917 327.452 43.3686 327.21 43.3699V43.3799Z" fill="#263238"/>
<path d="M330.86 42.21C330.86 42.9319 330.646 43.6376 330.245 44.2378C329.844 44.838 329.274 45.3059 328.607 45.5821C327.94 45.8584 327.206 45.9307 326.498 45.7898C325.79 45.649 325.14 45.3014 324.629 44.7909C324.119 44.2804 323.771 43.6301 323.63 42.922C323.489 42.214 323.562 41.4801 323.838 40.8132C324.114 40.1462 324.582 39.5762 325.182 39.1751C325.782 38.774 326.488 38.56 327.21 38.56C327.69 38.5586 328.165 38.6521 328.608 38.8351C329.052 39.0181 329.455 39.2869 329.794 39.6261C330.133 39.9653 330.402 40.3682 330.585 40.8116C330.768 41.255 330.861 41.7303 330.86 42.21Z" fill="#263238"/>
<path d="M279.76 10.2799C281.77 10.2799 283.4 8.65025 283.4 6.63994C283.4 4.62962 281.77 2.99994 279.76 2.99994C277.75 2.99994 276.12 4.62962 276.12 6.63994C276.12 8.65025 277.75 10.2799 279.76 10.2799Z" fill="#263238"/>
<path d="M274.66 23.2799C273.519 24.4211 272.065 25.1983 270.482 25.5131C268.899 25.828 267.258 25.6664 265.767 25.0488C264.276 24.4312 263.002 23.3853 262.105 22.0434C261.209 20.7015 260.73 19.1238 260.73 17.5099C260.73 15.896 261.209 14.3184 262.105 12.9765C263.002 11.6346 264.276 10.5887 265.767 9.97106C267.258 9.35345 268.899 9.19186 270.482 9.50671C272.065 9.82156 273.519 10.5987 274.66 11.7399C276.188 13.2715 277.046 15.3466 277.046 17.5099C277.046 19.6733 276.188 21.7483 274.66 23.2799Z" fill="#407BFF"/>
<path opacity="0.7" d="M274.66 23.2799C273.519 24.4211 272.065 25.1983 270.482 25.5131C268.899 25.828 267.258 25.6664 265.767 25.0488C264.276 24.4312 263.002 23.3853 262.105 22.0434C261.209 20.7015 260.73 19.1238 260.73 17.5099C260.73 15.896 261.209 14.3184 262.105 12.9765C263.002 11.6346 264.276 10.5887 265.767 9.97106C267.258 9.35345 268.899 9.19186 270.482 9.50671C272.065 9.82156 273.519 10.5987 274.66 11.7399C276.188 13.2715 277.046 15.3466 277.046 17.5099C277.046 19.6733 276.188 21.7483 274.66 23.2799Z" fill="white"/>
<path d="M279.76 6.63992C278.138 5.01563 276.211 3.72708 274.09 2.84792C271.969 1.96875 269.696 1.51624 267.4 1.51624C265.104 1.51624 262.831 1.96875 260.71 2.84792C258.589 3.72708 256.663 5.01563 255.04 6.63992L279.76 31.3799C281.386 29.7564 282.676 27.8282 283.556 25.7056C284.437 23.5831 284.89 21.3078 284.89 19.0099C284.89 16.7121 284.437 14.4368 283.556 12.3142C282.676 10.1917 281.386 8.26345 279.76 6.63992Z" fill="#263238"/>
<g opacity="0.2">
<path d="M255.03 6.63989L151.21 106.44H257.72L279.76 31.3599L255.03 6.63989Z" fill="#407BFF"/>
<path opacity="0.7" d="M255.03 6.63989L151.21 106.44H257.72L279.76 31.3599L255.03 6.63989Z" fill="white"/>
</g>
</svg>
